<svg width="20" height="15" viewBox="0 0 20 15" fill="none" xmlns="http://www.w3.org/2000/svg">
<path d="M10.8227 0.432036C10.7309 0.298795 10.6082 0.189852 10.465 0.11459C10.3218 0.0393277 10.1624 3.90847e-06 10.0007 3.89433e-06C9.8389 3.88019e-06 9.67956 0.0393277 9.53636 0.11459C9.39317 0.189852 9.27041 0.298795 9.17868 0.432035L0.178673 13.432C0.0744973 13.582 0.0134088 13.7576 0.00203905 13.9398C-0.00933067 14.1221 0.0294572 14.3039 0.114187 14.4656C0.198917 14.6274 0.326349 14.7628 0.482637 14.8572C0.638926 14.9516 0.818092 15.0013 1.00067 15.001L19.0007 15.001C19.1828 15.0003 19.3613 14.9499 19.517 14.8553C19.6727 14.7607 19.7996 14.6254 19.8841 14.464C19.9686 14.3027 20.0076 14.1213 19.9968 13.9395C19.9859 13.7577 19.9258 13.5822 19.8227 13.432L10.8227 0.432036Z" fill="#434343"/>
</svg>
